# xmcd
#
# Track frame offsets:
#	150
#	5185
#	16475
#	25908
#	30993
#	35813
#	50588
#	63738
#	75405
#	86155
#	89788
#	99370
#	105468
#	113193
#	120965
#	129175
#	137350
#	142248
#	147093
#	160640
#	172210
#	182430
#	194523
#
# Disc length: 2858 seconds
#
# Revision: 1
# Processed by: cddbd v1.5.1PL0 Copyright (c) Steve Scherf et al.
# Submitted via: CDex 1.50Beta5
#
DISCID=390b2817
DTITLE=NHK - うたっておどろんぱ ともだちはともだち
DYEAR=2000
DGENRE=(Doyo)
TTITLE0=ここはドキドキハウス
TTITLE1=めざせ!おべんとチャンピオン
TTITLE2=あめつぶブラザーズのぼうけん
TTITLE3=あめのひはどうしよう('99年バージョン)
TTITLE4=スイスイ スイミング[Wd ダンス]
TTITLE5=ともだちは ともだち
TTITLE6=剣の舞 ・ハンドベル・バージョン・
TTITLE7=ながれぼし みつけたら
TTITLE8=ちきゅうのうえはにぎやかだ
TTITLE9=ともだちは ともだち ・ア・カペラ・バージョン・
TTITLE10=バリリー バリリー
TTITLE11=ケルトのもりでドンジャラホイ![Wdダンス]
TTITLE12=ちいさなうたの おおきなちから
TTITLE13=はじめのいっぽ
TTITLE14=ヘリハラ・ペコヘリ・ペコハーラ
TTITLE15=モノマネーダンス
TTITLE16=ロボット・テクノ[Wdダンス]
TTITLE17=おそうじ ハイホー!
TTITLE18=シャラララ・ラ・ラ
TTITLE19=パパママ ゆるしてナイト
TTITLE20=にじになった!てがみ
TTITLE21=そらからのおくりもの
TTITLE22=ディスコ「ビッグ・ホール」のテーマ ライド・オン・ドリーム
EXTD=
EXTT0=
EXTT1=
EXTT2=
EXTT3=
EXTT4=
EXTT5=
EXTT6=
EXTT7=
EXTT8=
EXTT9=
EXTT10=
EXTT11=
EXTT12=
EXTT13=
EXTT14=
EXTT15=
EXTT16=
EXTT17=
EXTT18=
EXTT19=
EXTT20=
EXTT21=
EXTT22=
PLAYORDER=
